<?xml version="1.0" standalone="no"?>
<!DOCTYPE svg PUBLIC "-//W3C//DTD SVG 20010904//EN"
 "http://www.w3.org/TR/2001/REC-SVG-20010904/DTD/svg10.dtd">
<svg version="1.0" xmlns="http://www.w3.org/2000/svg"
 width="664.000000pt" height="664.000000pt" viewBox="0 0 664.000000 664.000000"
 preserveAspectRatio="xMidYMid meet">
<metadata>
Created by potrace 1.14, written by Peter Selinger 2001-2017
</metadata>
<g transform="translate(0.000000,664.000000) scale(0.100000,-0.100000)"
fill="#000000" stroke="none">
<path d="M3750 6513 c-33 -13 -191 -144 -273 -228 -66 -67 -160 -185 -194
-243 -15 -26 -30 -49 -33 -52 -11 -10 -70 -140 -70 -155 0 -8 -4 -15 -8 -15
-5 0 -9 -6 -10 -12 -2 -23 -7 -43 -16 -56 -4 -7 -6 -16 -3 -19 3 -3 2 -16 -3
-28 -35 -91 -27 -328 17 -500 8 -33 16 -67 18 -75 2 -8 22 -69 45 -135 57
-163 88 -285 95 -372 3 -40 6 -76 6 -80 1 -5 1 -10 0 -13 -1 -3 -3 -50 -5
-106 -1 -55 -5 -105 -9 -111 -6 -10 -55 -9 -172 2 -103 9 -139 14 -165 21 -14
3 -36 8 -50 10 -74 12 -344 99 -530 171 -18 7 -11 5 -81 27 -31 9 -66 19 -78
21 -13 2 -31 7 -41 10 -102 32 -390 38 -483 9 -10 -3 -30 -7 -45 -9 -58 -8
-261 -77 -312 -106 -8 -5 -28 -15 -45 -22 -51 -23 -167 -101 -235 -158 -178
-147 -342 -364 -461 -604 -19 -38 -37 -71 -41 -73 -5 -2 -8 -11 -8 -21 0 -9
-4 -21 -9 -26 -17 -19 -185 -449 -195 -500 -1 -5 -15 -50 -31 -100 -16 -49
-30 -96 -31 -104 -1 -8 -9 -35 -18 -60 -8 -25 -22 -75 -31 -111 -9 -36 -20
-76 -25 -90 -5 -14 -12 -36 -15 -50 -2 -14 -14 -61 -25 -105 -26 -104 -77
-330 -85 -375 -5 -29 -28 -156 -40 -220 -4 -21 -17 -110 -20 -140 -12 -115
-18 -159 -22 -185 -3 -16 -6 -138 -8 -270 -2 -218 3 -299 28 -450 7 -45 48
-198 55 -210 4 -5 7 -15 8 -22 1 -6 21 -49 43 -94 53 -105 111 -179 198 -249
43 -35 154 -86 234 -107 35 -9 228 -9 269 0 112 25 225 76 353 160 119 78 195
143 352 302 141 142 183 187 285 305 30 35 71 82 90 104 155 178 399 312 696
381 10 2 38 9 62 15 24 6 62 13 85 15 23 3 49 8 57 10 22 7 129 19 265 30 61
5 424 5 480 0 28 -3 82 -7 120 -9 152 -9 362 -49 503 -95 129 -42 300 -129
350 -178 7 -7 17 -13 21 -13 11 0 135 -124 191 -190 25 -30 65 -76 90 -103 25
-27 52 -58 60 -69 21 -28 338 -347 377 -381 18 -15 37 -27 43 -27 5 0 10 -4
10 -8 0 -13 171 -129 241 -163 82 -41 175 -76 230 -86 50 -9 220 -10 262 0 83
18 178 61 242 110 51 39 134 128 135 145 0 6 4 12 9 12 10 0 72 124 100 200
64 180 85 328 85 615 1 206 -3 289 -19 420 -10 83 -15 121 -19 140 -2 11 -7
43 -10 70 -13 95 -21 140 -42 240 -25 124 -32 159 -45 210 -5 22 -11 49 -13
60 -5 27 -45 179 -111 420 -111 406 -277 820 -435 1085 -110 184 -272 369
-415 475 -22 17 -42 32 -45 35 -10 10 -126 78 -175 102 -75 37 -251 100 -290
103 -5 0 -16 4 -22 8 -7 5 -13 6 -13 3 0 -2 -14 -1 -32 4 -75 22 -287 30 -388
15 -77 -11 -83 -12 -150 -30 -36 -9 -72 -18 -80 -20 -8 -2 -37 -12 -65 -23
-27 -11 -53 -20 -58 -21 -4 0 -22 -7 -40 -15 -114 -47 -392 -131 -502 -151
-54 -9 -150 -18 -154 -14 -2 2 -4 78 -3 169 0 156 -10 254 -38 355 -11 39 -55
174 -67 205 -4 8 -7 17 -8 20 0 3 -8 28 -18 55 -9 28 -17 53 -18 57 0 4 -5 22
-10 40 -6 18 -12 47 -14 63 -3 17 -8 41 -11 55 -3 14 -7 84 -9 157 -3 136 3
172 51 293 21 54 106 197 134 227 11 12 20 25 20 28 0 13 197 204 275 267 83
67 98 93 82 141 -17 51 -76 79 -127 60z m-1580 -2197 c127 -35 114 -30 210
-66 47 -18 139 -50 205 -72 66 -22 127 -43 135 -46 17 -6 12 -4 105 -27 39 -9
84 -18 100 -21 17 -2 40 -6 52 -8 135 -27 606 -28 685 -1 7 2 29 6 48 9 19 3
46 8 60 11 14 3 36 8 50 11 44 8 132 35 235 71 55 19 105 36 110 37 6 1 20 8
33 14 12 7 22 11 22 8 0 -3 21 5 47 16 45 20 70 28 198 63 88 24 108 27 225
30 126 4 229 -11 346 -50 69 -23 178 -72 219 -97 46 -29 111 -73 130 -88 35
-27 225 -221 225 -230 0 -5 6 -15 13 -22 55 -55 198 -309 271 -480 9 -21 22
-53 30 -70 82 -189 290 -877 322 -1063 2 -11 15 -72 28 -135 13 -63 27 -131
30 -150 3 -19 8 -46 11 -60 9 -42 26 -166 40 -290 27 -231 27 -608 0 -730 -2
-14 -8 -41 -11 -60 -24 -147 -106 -312 -187 -379 -81 -67 -224 -91 -341 -57
-63 19 -179 74 -230 110 -121 84 -340 288 -476 442 -25 29 -70 80 -100 114
-30 34 -66 76 -80 93 -58 72 -197 200 -278 255 -163 111 -418 214 -607 245
-16 3 -52 10 -80 15 -27 6 -72 13 -100 16 -27 4 -66 9 -85 11 -188 25 -747 25
-871 0 -13 -3 -44 -7 -69 -10 -25 -3 -56 -7 -70 -10 -47 -9 -85 -16 -110 -20
-55 -8 -200 -48 -300 -82 -265 -90 -475 -222 -625 -393 -17 -19 -64 -73 -105
-120 -41 -47 -93 -105 -115 -130 -72 -81 -279 -285 -330 -325 -27 -22 -52 -42
-55 -45 -27 -29 -240 -157 -240 -144 0 2 -12 -2 -28 -10 -100 -52 -289 -30
-379 45 -63 51 -153 207 -168 291 -3 13 -9 43 -15 68 -30 126 -38 231 -35 455
2 127 6 248 9 270 3 22 8 60 10 85 14 127 17 147 21 170 10 49 13 66 19 114 4
28 13 80 21 116 8 36 16 77 19 90 2 14 9 45 15 70 5 25 12 56 15 70 10 51 16
74 47 193 17 67 32 127 33 132 3 12 28 99 62 215 62 208 183 550 222 626 5 11
31 64 58 119 96 200 202 354 333 485 181 181 365 277 621 326 13 3 26 7 28 9
2 2 65 2 140 0 111 -2 155 -7 232 -29z"/>
<path d="M1913 3600 c-45 -10 -82 -36 -95 -68 -7 -17 -12 -116 -12 -267 l-1
-240 -242 -1 c-267 -1 -274 -2 -313 -67 -25 -41 -25 -83 0 -124 38 -64 45 -65
312 -67 l243 -1 0 -245 c1 -212 3 -249 17 -269 55 -79 166 -82 216 -6 21 34
22 43 22 278 l0 244 243 1 c201 0 249 3 274 15 50 26 69 69 64 143 -2 31 -49
82 -84 90 -18 4 -135 8 -262 8 l-230 1 -5 251 c-5 233 -7 254 -25 275 -11 13
-20 25 -20 26 -4 12 -76 29 -102 23z"/>
<path d="M4785 3600 c-57 -10 -89 -25 -120 -56 -78 -78 -81 -207 -8 -290 30
-35 98 -64 148 -64 176 0 273 200 163 334 -30 36 -105 83 -116 72 -3 -3 -10
-2 -16 2 -6 5 -29 5 -51 2z"/>
<path d="M4222 3077 c-45 -17 -92 -64 -115 -116 -69 -155 90 -326 253 -271 87
29 141 100 142 188 1 64 -7 90 -40 131 -56 70 -155 98 -240 68z"/>
<path d="M5231 3074 c-65 -34 -120 -116 -121 -179 -1 -205 251 -293 375 -131
37 49 50 123 32 182 -14 45 -62 101 -105 123 -43 22 -144 25 -181 5z"/>
<path d="M4780 2580 c-69 -13 -125 -54 -158 -115 -18 -35 -24 -118 -10 -154
42 -114 167 -171 275 -126 164 69 170 295 11 376 -21 11 -38 17 -38 14 0 -2
-10 -1 -22 3 -13 5 -39 6 -58 2z"/>
</g>
</svg>
